<svg xmlns="http://www.w3.org/2000/svg" viewBox="0 0 195.381 83.033">
  <title>Ayming</title>
  <defs>
    <style>
      .cls-1 {
        fill: #00aeef;
      }

      .cls-2 {
        fill: #666;
      }
    </style>
  </defs>
  <g id="Group_2" data-name="Group 2" transform="translate(-520.669 -258)">
    <g id="logo-horizontal" transform="translate(520.669 258)">
      <path id="Path_1" data-name="Path 1" class="cls-1" d="M146.655,87.511a.757.757,0,0,1-.757-.759V68.813a.758.758,0,0,1,1.516,0v17.94A.758.758,0,0,1,146.655,87.511Z" transform="translate(-78.168 -36.462)"></path>
      <path id="Path_2" data-name="Path 2" class="cls-1" d="M88.413,119.73a.758.758,0,0,1-.758-.758V101.538a.759.759,0,0,1,1.517,0v17.434A.758.758,0,0,1,88.413,119.73Z" transform="translate(-46.963 -53.995)"></path>
      <path id="Path_3" data-name="Path 3" class="cls-1" d="M88.413,56.034a.758.758,0,0,1-.758-.758V38.36a.759.759,0,0,1,1.517,0V55.276A.759.759,0,0,1,88.413,56.034Z" transform="translate(-46.963 -20.145)"></path>
      <path id="Path_4" data-name="Path 4" class="cls-1" d="M59.518,73.984a.762.762,0,0,1-.359-.09L44.124,65.809a.759.759,0,0,1,.718-1.337l15.035,8.086a.758.758,0,0,1-.359,1.426Z" transform="translate(-23.426 -34.495)"></path>
      <path id="Path_5" data-name="Path 5" class="cls-1" d="M57.7,140.66a.753.753,0,0,1-.389-.107L41.58,131.173a.758.758,0,0,1,.776-1.3l15.729,9.381a.758.758,0,0,1-.389,1.408Z" transform="translate(-22.079 -69.524)"></path>
      <path id="Path_6" data-name="Path 6" class="cls-1" d="M115.894,38.539a.759.759,0,0,1-.382-.1l-15.35-8.97a.758.758,0,1,1,.765-1.309l15.349,8.97a.758.758,0,0,1-.383,1.413Z" transform="translate(-53.463 -15.03)"></path>
      <path id="Path_7" data-name="Path 7" class="cls-1" d="M145.329,33.128a.544.544,0,0,1-.088-.005.76.76,0,0,1-.667-.841l1.215-10.355a.758.758,0,1,1,1.505.176l-1.213,10.355A.76.76,0,0,1,145.329,33.128Z" transform="translate(-77.456 -11.388)"></path>
      <path id="Path_8" data-name="Path 8" class="cls-1" d="M154.428,48.77a.757.757,0,0,1-.391-1.406l4.858-2.933a.758.758,0,1,1,.782,1.3l-4.856,2.932A.766.766,0,0,1,154.428,48.77Z" transform="translate(-82.332 -23.746)"></path>
      <path id="Path_9" data-name="Path 9" class="cls-1" d="M165.385,65.643a.748.748,0,0,1-.262-.046l-10.006-3.692a.758.758,0,1,1,.524-1.423l10.006,3.692a.758.758,0,0,1-.262,1.469Z" transform="translate(-82.842 -32.38)"></path>
      <path id="Path_10" data-name="Path 10" class="cls-1" d="M158.99,82.588a.758.758,0,0,1-.687-.436L151.02,66.686a.758.758,0,0,1,1.372-.646l7.283,15.467a.758.758,0,0,1-.364,1.008.734.734,0,0,1-.322.073Z" transform="translate(-80.873 -35.149)"></path>
      <path id="Path_11" data-name="Path 11" class="cls-1" d="M155.654,112.72a.758.758,0,0,1-.38-1.415l8.772-5.056a.758.758,0,0,1,.757,1.314l-8.772,5.057A.759.759,0,0,1,155.654,112.72Z" transform="translate(-82.988 -56.871)"></path>
      <path id="Path_12" data-name="Path 12" class="cls-1" d="M156.688,134.025a.759.759,0,0,1-.554-.241l-4.028-4.31a.758.758,0,0,1,1.107-1.035l4.028,4.309a.759.759,0,0,1-.553,1.277Z" transform="translate(-81.385 -68.685)"></path>
      <path id="Path_13" data-name="Path 13" class="cls-1" d="M143.043,145.333h-.027a.758.758,0,0,1-.731-.784l.393-11.39a.758.758,0,0,1,1.516.052L143.8,144.6a.758.758,0,0,1-.757.732Z" transform="translate(-76.232 -70.95)"></path>
      <path id="Path_14" data-name="Path 14" class="cls-1" d="M114.65,163.855a.811.811,0,0,1-.2-.027l-15.124-4.206a.759.759,0,0,1,.406-1.462l15.124,4.207a.758.758,0,0,1-.2,1.489Z" transform="translate(-52.917 -84.723)"></path>
      <path id="Path_15" data-name="Path 15" class="cls-1" d="M101.352,146.78a.758.758,0,0,1-.229-1.48l15.072-4.771a.758.758,0,1,1,.458,1.444l-15.073,4.771a.718.718,0,0,1-.228.035Z" transform="translate(-53.895 -75.272)"></path>
      <path id="Path_16" data-name="Path 16" class="cls-1" d="M95.345,170.49a.759.759,0,0,1-.664-.392l-3.168-5.737a.758.758,0,1,1,1.327-.733l3.168,5.737a.758.758,0,0,1-.663,1.124Z" transform="translate(-48.979 -87.458)"></path>
      <path id="Path_17" data-name="Path 17" class="cls-1" d="M75.626,170.113a.757.757,0,0,1-.637-1.167l3.7-5.77a.758.758,0,1,1,1.275.819l-3.7,5.77A.759.759,0,0,1,75.626,170.113Z" transform="translate(-40.112 -87.238)"></path>
      <path id="Path_18" data-name="Path 18" class="cls-1" d="M62.8,127.1a.792.792,0,0,1-.136-.012L46.12,124.123a.758.758,0,1,1,.268-1.492L62.934,125.6a.758.758,0,0,1-.133,1.5Z" transform="translate(-24.375 -65.696)"></path>
      <path id="Path_19" data-name="Path 19" class="cls-1" d="M44.622,104.854a.759.759,0,0,1-.347-1.433l15.254-7.864a.758.758,0,0,1,.694,1.347l-15.254,7.864A.736.736,0,0,1,44.622,104.854Z" transform="translate(-23.501 -51.151)"></path>
      <path id="Path_20" data-name="Path 20" class="cls-1" d="M13.132,119.741a.309.309,0,0,1-.041,0l-7.124-.393a.756.756,0,0,1-.714-.8.742.742,0,0,1,.8-.716l7.123.394a.758.758,0,0,1-.043,1.515Z" transform="translate(-2.813 -63.129)"></path>
      <path id="Path_21" data-name="Path 21" class="cls-1" d="M10.983,102.32a.757.757,0,0,1-.542-.226L.217,91.682A.758.758,0,0,1,1.3,90.62l10.224,10.412a.758.758,0,0,1-.54,1.289Z" transform="translate(0 -48.43)"></path>
      <path id="Path_22" data-name="Path 22" class="cls-1" d="M38.905,91.964a.759.759,0,0,1-.671-1.11L46,76.065a.758.758,0,1,1,1.343.705L39.577,91.558a.759.759,0,0,1-.671.406Z" transform="translate(-20.438 -40.536)"></path>
      <path id="Path_23" data-name="Path 23" class="cls-1" d="M16.023,50.314a.765.765,0,0,1-.212-.03l-5.442-1.6a.758.758,0,1,1,.426-1.455l5.442,1.6a.757.757,0,0,1-.214,1.484Z" transform="translate(-5.263 -25.29)"></path>
      <path id="Path_24" data-name="Path 24" class="cls-1" d="M24.867,38.1a.757.757,0,0,1-.721-.526l-2.259-6.993a.758.758,0,1,1,1.442-.467l2.26,6.994a.758.758,0,0,1-.722.991Z" transform="translate(-11.706 -15.851)"></path>
      <path id="Path_25" data-name="Path 25" class="cls-1" d="M36.438,28.878a.776.776,0,0,1-.162-.017.757.757,0,0,1-.577-.9l3.2-14.546a.758.758,0,0,1,1.48.326l-3.2,14.544A.758.758,0,0,1,36.438,28.878Z" transform="translate(-19.116 -6.867)"></path>
      <path id="Path_26" data-name="Path 26" class="cls-1" d="M18.825,136.238a.757.757,0,0,1-.644-1.156l3.446-5.572a.759.759,0,0,1,1.291.8l-3.447,5.573A.758.758,0,0,1,18.825,136.238Z" transform="translate(-9.68 -69.195)"></path>
      <path id="Path_27" data-name="Path 27" class="cls-1" d="M36.81,147.1a.756.756,0,0,1-.739-.6l-3.008-13.776a.758.758,0,0,1,1.48-.323l3.008,13.776a.755.755,0,0,1-.579.9A.777.777,0,0,1,36.81,147.1Z" transform="translate(-17.705 -70.618)"></path>
      <path id="Path_28" data-name="Path 28" class="cls-1" d="M50.445,163.274a.758.758,0,0,1-.279-1.463l12.267-4.848a.758.758,0,0,1,.557,1.409l-12.268,4.849a.755.755,0,0,1-.277.053Z" transform="translate(-26.62 -84.068)"></path>
      <path id="Path_29" data-name="Path 29" class="cls-1" d="M43.258,37.628a.757.757,0,0,1-.4-1.4l15.16-9.285a.758.758,0,1,1,.792,1.292L43.654,37.517A.759.759,0,0,1,43.258,37.628Z" transform="translate(-22.77 -14.373)"></path>
      <path id="Path_30" data-name="Path 30" class="cls-1" d="M63.719,19.674c-.021,0-.044,0-.065,0l-11.747-.988a.757.757,0,0,1-.692-.819.766.766,0,0,1,.818-.692l11.749.988a.758.758,0,0,1-.064,1.513Z" transform="translate(-27.438 -9.199)"></path>
      <path id="Path_31" data-name="Path 31" class="cls-1" d="M83.21,7.337a.761.761,0,0,1-.716-.506L80.442,1.01A.759.759,0,0,1,81.873.5l2.051,5.822a.758.758,0,0,1-.463.968A.746.746,0,0,1,83.21,7.337Z" transform="translate(-43.076 0)"></path>
      <path id="Path_32" data-name="Path 32" class="cls-1" d="M94.693,8.689a.758.758,0,0,1-.579-1.247L98.841,1.85A.758.758,0,1,1,100,2.828L95.272,8.42A.758.758,0,0,1,94.693,8.689Z" transform="translate(-50.328 -0.847)"></path>
      <path id="Path_33" data-name="Path 33" class="cls-1" d="M99.729,17.342a.758.758,0,0,1-.149-1.5l16.478-3.283a.758.758,0,1,1,.3,1.487L99.877,17.328a.7.7,0,0,1-.148.014Z" transform="translate(-53.026 -6.721)"></path>
      <path id="Path_34" data-name="Path 34" class="cls-1" d="M73.21,61.262a.758.758,0,0,1-.671-.4L64.77,46.173a.758.758,0,0,1,1.339-.71L73.88,60.149a.759.759,0,0,1-.67,1.113Z" transform="translate(-34.655 -24.142)"></path>
      <path id="Path_35" data-name="Path 35" class="cls-1" d="M95.849,59.868a.758.758,0,0,1-.656-1.135l9.116-15.894a.758.758,0,0,1,1.315.753L96.508,59.487A.758.758,0,0,1,95.849,59.868Z" transform="translate(-50.948 -22.748)"></path>
      <path id="Path_36" data-name="Path 36" class="cls-1" d="M120.456,27.789a.742.742,0,0,1-.4-.115.757.757,0,0,1-.24-1.045l4.251-6.784a.758.758,0,1,1,1.285.806l-4.25,6.783a.76.76,0,0,1-.645.355Z" transform="translate(-64.131 -10.442)"></path>
      <path id="Path_37" data-name="Path 37" class="cls-1" d="M120.082,89.371H101.361a.758.758,0,1,1,0-1.516h18.721a.758.758,0,0,1,0,1.516Z" transform="translate(-53.9 -47.07)"></path>
      <path id="Path_38" data-name="Path 38" class="cls-1" d="M114.924,70.5a.758.758,0,0,1-.35-1.431l8.863-4.605a.758.758,0,1,1,.7,1.345l-8.866,4.607a.754.754,0,0,1-.347.084Z" transform="translate(-61.166 -34.495)"></path>
      <path id="Path_39" data-name="Path 39" class="cls-1" d="M126.154,54.972h-.029l-4.456-.158A.758.758,0,0,1,121.7,53.3h.027l4.456.158a.758.758,0,0,1-.026,1.516Z" transform="translate(-64.795 -28.556)"></path>
      <path id="Path_40" data-name="Path 40" class="cls-1" d="M115.048,104.479a.761.761,0,0,1-.382-.1L99.348,95.458a.758.758,0,0,1,.762-1.31l15.319,8.916a.759.759,0,0,1-.381,1.414Z" transform="translate(-53.026 -50.387)"></path>
      <path id="Path_41" data-name="Path 41" class="cls-1" d="M29.665,106a.758.758,0,0,1-.758-.758v-2.627a.759.759,0,1,1,1.517,0v2.627A.758.758,0,0,1,29.665,106Z" transform="translate(-15.487 -54.572)"></path>
      <path id="Path_42" data-name="Path 42" class="cls-1" d="M29.665,81.718a.758.758,0,0,1-.758-.758V69.633a.759.759,0,0,1,1.517,0V80.96A.759.759,0,0,1,29.665,81.718Z" transform="translate(-15.487 -36.901)"></path>
      <path id="Path_43" data-name="Path 43" class="cls-1" d="M1.777,68.392a.758.758,0,0,1-.344-1.434l9.215-4.672a.758.758,0,1,1,.685,1.351L2.117,68.31A.733.733,0,0,1,1.777,68.392Z" transform="translate(-0.545 -33.327)"></path>
      <path id="Path_44" data-name="Path 44" class="cls-1" d="M108.147,127.989a.758.758,0,0,1-.139-1.5l10.779-2.014a.758.758,0,0,1,.277,1.49l-10.778,2.015A.774.774,0,0,1,108.147,127.989Z" transform="translate(-57.536 -66.683)"></path>
      <path id="Path_45" data-name="Path 45" class="cls-1" d="M82.1,25.121A6.417,6.417,0,1,1,88.519,18.7,6.425,6.425,0,0,1,82.1,25.121Zm0-11.32A4.9,4.9,0,1,0,87,18.7,4.908,4.908,0,0,0,82.1,13.8Z" transform="translate(-40.549 -6.582)"></path>
      <path id="Path_46" data-name="Path 46" class="cls-1" d="M82.1,152.014a6.418,6.418,0,1,1,6.417-6.417A6.424,6.424,0,0,1,82.1,152.014Zm0-11.32a4.9,4.9,0,1,0,4.9,4.9A4.908,4.908,0,0,0,82.1,140.695Z" transform="translate(-40.549 -74.568)"></path>
      <path id="Path_47" data-name="Path 47" class="cls-1" d="M137.009,120.224a6.418,6.418,0,1,1,6.417-6.418A6.424,6.424,0,0,1,137.009,120.224Zm0-11.32a4.9,4.9,0,1,0,4.9,4.9A4.908,4.908,0,0,0,137.009,108.9Z" transform="translate(-69.968 -57.536)"></path>
      <path id="Path_48" data-name="Path 48" class="cls-1" d="M27.311,120.224a6.418,6.418,0,1,1,6.418-6.418A6.426,6.426,0,0,1,27.311,120.224Zm0-11.32a4.9,4.9,0,1,0,4.9,4.9A4.906,4.906,0,0,0,27.311,108.9Z" transform="translate(-11.194 -57.536)"></path>
      <path id="Path_49" data-name="Path 49" class="cls-1" d="M137.009,56.822a6.418,6.418,0,1,1,6.417-6.418A6.424,6.424,0,0,1,137.009,56.822Zm0-11.321a4.9,4.9,0,1,0,4.9,4.9A4.909,4.909,0,0,0,137.009,45.5Z" transform="translate(-69.968 -23.566)"></path>
      <path id="Path_50" data-name="Path 50" class="cls-1" d="M27.311,56.822A6.418,6.418,0,1,1,33.73,50.4,6.426,6.426,0,0,1,27.311,56.822Zm0-11.321a4.9,4.9,0,1,0,4.9,4.9A4.908,4.908,0,0,0,27.311,45.5Z" transform="translate(-11.194 -23.566)"></path>
      <path id="Path_51" data-name="Path 51" class="cls-1" d="M82.16,88.567A6.417,6.417,0,1,1,88.58,82.15,6.424,6.424,0,0,1,82.16,88.567Zm0-11.317a4.9,4.9,0,1,0,4.9,4.9A4.908,4.908,0,0,0,82.16,77.25Z" transform="translate(-40.581 -40.576)"></path>
    </g>
    <g id="Group_1" data-name="Group 1" transform="translate(623.266 286.21)">
      <path id="Path_52" data-name="Path 52" class="cls-2" d="M264.758,82.217c-3.8,0-5.709-1.854-5.709-4.4,0-3.013,2.4-4.491,5.709-4.491a15.091,15.091,0,0,1,3.071.319V72.423c0-2.029-1.1-3.13-3.39-3.13a10.518,10.518,0,0,0-3.882.725l-.58-2.348a13.543,13.543,0,0,1,4.753-.84c3.97,0,5.968,2.057,5.968,5.737v8.316A12.115,12.115,0,0,1,264.758,82.217Zm3.071-2.81v-3.8a11.073,11.073,0,0,0-2.725-.347c-1.794,0-3.128.637-3.128,2.433,0,1.536,1.1,2.318,3.042,2.318A5.694,5.694,0,0,0,267.828,79.407Zm6.607,7.823-.493-2.522A7.594,7.594,0,0,0,278.9,81.26a28.145,28.145,0,0,1-5.388-14.082h2.955A26.674,26.674,0,0,0,280.433,79,29.96,29.96,0,0,0,283.8,67.179h2.926a36.113,36.113,0,0,1-4.664,13.879C279.855,84.911,277.305,86.65,274.435,87.23Zm33.613-5.361V72.626c0-2.029-.9-3.333-3.158-3.333a6.738,6.738,0,0,0-3.478,1.015,8.128,8.128,0,0,1,.377,2.637V81.87h-2.869V72.627c0-2.029-.87-3.333-3.13-3.333a6.961,6.961,0,0,0-3.158.753V81.87h-2.927V68.193a14.952,14.952,0,0,1,6.2-1.363,6.079,6.079,0,0,1,4.143,1.332,10.277,10.277,0,0,1,4.955-1.332c3.97,0,5.969,2.144,5.969,5.593V81.87h-2.926Zm7.012-19.037a1.811,1.811,0,1,1,1.826,1.8A1.668,1.668,0,0,1,315.061,62.833Zm3.3,19.037h-2.927V67.179h2.927v14.69Zm4.579,0V68.193a15.394,15.394,0,0,1,6.317-1.363c4.055,0,6.2,2.057,6.2,5.593v9.446h-2.926V72.626c0-2.116-1.072-3.333-3.274-3.333a7.674,7.674,0,0,0-3.39.753V81.869Zm22.2,5.534a11.96,11.96,0,0,1-4.839-.841l.609-2.375a10.749,10.749,0,0,0,4.056.724c2.58,0,3.94-1.188,3.94-3.187V80.507a6.89,6.89,0,0,1-3.186.754c-4.145,0-6.752-2.521-6.752-6.925,0-4.636,2.955-7.5,7.446-7.5a13.1,13.1,0,0,1,5.419,1.159V81.463c0,3.854-2.578,5.94-6.693,5.94Zm.985-8.635a5,5,0,0,0,2.781-.753V69.757a7.643,7.643,0,0,0-2.492-.464c-2.751,0-4.461,1.827-4.461,4.81C341.952,77,343.488,78.768,346.125,78.768Z" transform="translate(-259.049 -61.094)"></path>
    </g>
  </g>
</svg>